<svg xmlns="http://www.w3.org/2000/svg" viewBox="0 0 24 24">
  <path d="M20.623 14.367a1.28 1.28 0 0 0-.906-.367 1.305 1.305 0 0 0-.905.367l-6.628 6.435a.256.256 0 0 1-.185.077.262.262 0 0 1-.185-.077l-6.628-6.435a1.298 1.298 0 0 0-.905-.365c-.34 0-.666.131-.906.365-.24.234-.375.551-.375.882 0 .331.135.648.375.882l7.718 7.497A1.268 1.268 0 0 0 12 24a1.296 1.296 0 0 0 .906-.372l7.718-7.497A1.242 1.242 0 0 0 21 15.25a1.215 1.215 0 0 0-.377-.882ZM3.377 9.633a1.279 1.279 0 0 0 .906.367 1.305 1.305 0 0 0 .905-.367L11.9 3.138c-.032.014.024-.024 0 0a.263.263 0 0 1 .286.057l6.628 6.438a1.283 1.283 0 0 0 .905.365 1.31 1.31 0 0 0 .906-.365A1.247 1.247 0 0 0 21 8.75a1.22 1.22 0 0 0-.375-.882l-7.718-7.5A1.279 1.279 0 0 0 12 0a1.305 1.305 0 0 0-.906.367l-7.718 7.5A1.242 1.242 0 0 0 3 8.75a1.216 1.216 0 0 0 .377.883Z"/>
</svg>
