<svg xmlns="http://www.w3.org/2000/svg" viewBox="0 0 24 24">
  <path d="M1.21 5.25H11a.27.27 0 0 0 .18-.07.221.221 0 0 0 .05-.18L11.16.25a.25.25 0 0 0-.25-.25H4.65a2.58 2.58 0 0 0-2.28 1.53L1.19 4.2c-.076.243-.14.49-.19.74a.26.26 0 0 0 0 .21.26.26 0 0 0 .21.1ZM12.74 5a.25.25 0 0 0 .25.25h9.8a.26.26 0 0 0 .2-.1.26.26 0 0 0 .01-.21 7.301 7.301 0 0 0-.23-.74.593.593 0 0 0 0-.08l-1.32-2.56A2.59 2.59 0 0 0 19.15 0h-6.24a.26.26 0 0 0-.17.07.27.27 0 0 0-.08.18L12.74 5ZM.75 7v15a2 2 0 0 0 2 2h18.5a2 2 0 0 0 2-2V7a.25.25 0 0 0-.25-.25H1A.25.25 0 0 0 .75 7Zm8 9a.73.73 0 0 1 .67-.42h1a.25.25 0 0 0 .25-.25v-4.75a1.5 1.5 0 1 1 3 0v4.75a.25.25 0 0 0 .25.25h1a.75.75 0 0 1 .67.42.74.74 0 0 1-.07.78l-2.75 3.67a.77.77 0 0 1-.6.3.74.74 0 0 1-.6-.3l-2.75-3.67a.72.72 0 0 1-.07-.78Z"/>
</svg>
