<svg width="24" height="24" viewBox="0 0 24 24" fill="none" xmlns="http://www.w3.org/2000/svg">
<path fill-rule="evenodd" clip-rule="evenodd" d="M0 4.5C0 3.67157 0.671573 3 1.5 3H22.5C23.3284 3 24 3.67157 24 4.5C24 5.32843 23.3284 6 22.5 6H1.5C0.671573 6 0 5.32843 0 4.5Z" fill="#002147"/>
<path fill-rule="evenodd" clip-rule="evenodd" d="M4 11.5C4 10.6716 4.67157 10 5.5 10H18.5C19.3284 10 20 10.6716 20 11.5C20 12.3284 19.3284 13 18.5 13H5.5C4.67157 13 4 12.3284 4 11.5Z" fill="#002147"/>
<path fill-rule="evenodd" clip-rule="evenodd" d="M8 18.5C8 17.6716 8.67157 17 9.5 17H14.5C15.3284 17 16 17.6716 16 18.5C16 19.3284 15.3284 20 14.5 20H9.5C8.67157 20 8 19.3284 8 18.5Z" fill="#002147"/>
</svg>
